# xmcd
#
# Track frame offsets:
#	150
#	7958
#	25230
#	41485
#	55554
#	71647
#	87422
#	105681
#	121723
#	138858
#	160876
#	186458
#	210629
#	234862
#	253649
#	276858
#	300582
#
# Disc length: 4373 seconds
#
# Revision: 4
# Processed by: cddbd v1.5.1PL0 Copyright (c) Steve Scherf et al.
# Submitted via: audiograbber 1.83.01
#
DISCID=dc111311
DTITLE=Van Halen - Greatest Hits Vol. 01 - Van Halen - Greatest Hits Vol. 01
DYEAR=1900
DGENRE=Rock
TTITLE0=Eruption
TTITLE1=Ain't Talkin' 'bout Love
TTITLE2=Running With the Devil
TTITLE3=Dance the Night Away
TTITLE4=And the Cradle Will Rock
TTITLE5=Unchained
TTITLE6=Jump
TTITLE7=Panama
TTITLE8=Why Can't This Be Love?
TTITLE9=Dreams
TTITLE10=When It's Love
TTITLE11=Poundcake
TTITLE12=Right Now
TTITLE13=Can't Stop Loving You
TTITLE14=Humans Being
TTITLE15=Can't Get This Stuff No More
TTITLE16=Me Wise Magic
EXTD=
EXTT0=
EXTT1=
EXTT2=
EXTT3=
EXTT4=
EXTT5=
EXTT6=
EXTT7=
EXTT8=
EXTT9=
EXTT10=
EXTT11=
EXTT12=
EXTT13=
EXTT14=
EXTT15=
EXTT16=
PLAYORDER=
